<svg id="Lag_1" data-name="Lag 1" xmlns="http://www.w3.org/2000/svg" viewBox="0 0 40.29 29"><path d="M15.5,15.5c2.16,0,4.35-1.57,4.35-5.08a4.35,4.35,0,0,0-8.7,0C11.15,13.93,13.34,15.5,15.5,15.5Zm0-8a2.9,2.9,0,0,1,2.9,2.9c0,2.27-1.09,3.63-2.9,3.63s-2.9-1.36-2.9-3.63A2.9,2.9,0,0,1,15.5,7.52Z" transform="translate(-1 -1)" style="fill:#6c91a0"/><path d="M15.5,17c-4.47,0-8,1.93-8,4.39,0,2.31,2.84,3.58,8,3.58s8-1.27,8-3.58C23.48,18.88,20,17,15.5,17Zm0,6.52c-4,0-6.52-.83-6.52-2.13s2.68-2.94,6.52-2.94S22,20,22,21.34,19.46,23.47,15.5,23.47Z" transform="translate(-1 -1)" style="fill:#6c91a0"/><path d="M26,23.79a1.17,1.17,0,0,1-.29-.17,13,13,0,1,1,.07-16.17h0c.16-.1.3-.21.45-.31a3.29,3.29,0,0,1,.46-.3L27,6.71a14.51,14.51,0,1,0-.12,17.72l-.05,0C26.54,24.18,26.25,24,26,23.79Z" transform="translate(-1 -1)" style="fill:#6c91a0"/><path d="M31.66,5.87a9.63,9.63,0,1,0,9.63,9.63A9.64,9.64,0,0,0,31.66,5.87Zm0,18.64a9,9,0,1,1,9-9h0A9,9,0,0,1,31.66,24.51Z" transform="translate(-1 -1)" style="fill:#6c91a0"/><path d="M31.66,10.89h0a2.86,2.86,0,0,0-2.87,2.87h0a.31.31,0,0,0,.62,0h0a2.25,2.25,0,0,1,2.25-2.25h0a2.25,2.25,0,0,1,1.63,3.78,8.16,8.16,0,0,0-1.71,2.51.32.32,0,0,0,.16.41h0l.13,0a.31.31,0,0,0,.28-.18,7.45,7.45,0,0,1,1.6-2.33,2.87,2.87,0,0,0-2.09-4.83Z" transform="translate(-1 -1)" style="fill:#6c91a0"/><path d="M31.66,19.93a.31.31,0,0,0-.31.31v.4a.31.31,0,0,0,.31.31.31.31,0,0,0,.31-.31v-.4a.31.31,0,0,0-.31-.31Z" transform="translate(-1 -1)" style="fill:#6c91a0"/></svg>