<svg id="Lag_1" data-name="Lag 1" xmlns="http://www.w3.org/2000/svg" viewBox="0 0 441.23 382.15"><path d="M437.17,466.77H74.83a39.49,39.49,0,0,1-39.44-39.45V163.45A39.48,39.48,0,0,1,74.83,124h43.32a4,4,0,0,1,0,8H74.83a31.48,31.48,0,0,0-31.44,31.45V427.32a31.48,31.48,0,0,0,31.44,31.45H437.17a31.48,31.48,0,0,0,31.44-31.45V163.45A31.48,31.48,0,0,0,437.17,132H393.85a4,4,0,0,1,0-8h43.32a39.48,39.48,0,0,1,39.44,39.45V427.32A39.49,39.49,0,0,1,437.17,466.77Z" transform="translate(-35.38 -84.62)" style="fill:#6c91a0"/><path d="M137.85,171.38a23.72,23.72,0,0,1-23.7-23.69V108.31a23.7,23.7,0,0,1,47.39,0v39.38A23.71,23.71,0,0,1,137.85,171.38Zm0-78.77a15.71,15.71,0,0,0-15.7,15.7v39.38a15.7,15.7,0,0,0,31.39,0V108.31A15.71,15.71,0,0,0,137.85,92.61Z" transform="translate(-35.38 -84.62)" style="fill:#6c91a0"/><path d="M216.62,171.38a23.72,23.72,0,0,1-23.7-23.69V108.31a23.7,23.7,0,0,1,47.39,0v39.38A23.71,23.71,0,0,1,216.62,171.38Zm0-78.77a15.71,15.71,0,0,0-15.7,15.7v39.38a15.7,15.7,0,0,0,31.39,0V108.31A15.71,15.71,0,0,0,216.62,92.61Z" transform="translate(-35.38 -84.62)" style="fill:#6c91a0"/><path d="M295.39,171.38a23.72,23.72,0,0,1-23.7-23.69V108.31a23.7,23.7,0,0,1,47.39,0v39.38A23.71,23.71,0,0,1,295.39,171.38Zm0-78.77a15.71,15.71,0,0,0-15.7,15.7v39.38a15.7,15.7,0,0,0,31.39,0V108.31A15.71,15.71,0,0,0,295.39,92.61Z" transform="translate(-35.38 -84.62)" style="fill:#6c91a0"/><path d="M374.15,171.38a23.71,23.71,0,0,1-23.69-23.69V108.31a23.7,23.7,0,0,1,47.39,0v39.38A23.72,23.72,0,0,1,374.15,171.38Zm0-78.77a15.71,15.71,0,0,0-15.69,15.7v39.38a15.7,15.7,0,0,0,31.39,0V108.31A15.71,15.71,0,0,0,374.15,92.61Z" transform="translate(-35.38 -84.62)" style="fill:#6c91a0"/><path d="M354.46,132H315.08a4,4,0,0,1,0-8h39.38a4,4,0,0,1,0,8Z" transform="translate(-35.38 -84.62)" style="fill:#6c91a0"/><path d="M275.69,132H236.31a4,4,0,0,1,0-8h39.38a4,4,0,0,1,0,8Z" transform="translate(-35.38 -84.62)" style="fill:#6c91a0"/><path d="M196.92,132H157.54a4,4,0,1,1,0-8h39.38a4,4,0,0,1,0,8Z" transform="translate(-35.38 -84.62)" style="fill:#6c91a0"/><path d="M393.85,210.77H39.38a4,4,0,1,1,0-8H393.85a4,4,0,0,1,0,8Z" transform="translate(-35.38 -84.62)" style="fill:#6c91a0"/><path d="M344.61,427.38H167.38c-2.2,0-4-2.36-4-5.28V279c0-2.91,1.8-5.28,4-5.28H344.61c2.21,0,4,2.37,4,5.28V422.1C348.61,425,346.82,427.38,344.61,427.38ZM171.38,416.82H340.61V284.3H171.38Z" transform="translate(-35.38 -84.62)" style="fill:#6c91a0"/><path d="M236.31,279.69A23.69,23.69,0,1,1,260,256,23.71,23.71,0,0,1,236.31,279.69Zm0-39.38A15.69,15.69,0,1,0,252,256,15.7,15.7,0,0,0,236.31,240.31Z" transform="translate(-35.38 -84.62)" style="fill:#6c91a0"/><path d="M275.69,279.69A23.69,23.69,0,1,1,299.38,256,23.72,23.72,0,0,1,275.69,279.69Zm0-39.38A15.69,15.69,0,1,0,291.38,256,15.71,15.71,0,0,0,275.69,240.31Z" transform="translate(-35.38 -84.62)" style="fill:#6c91a0"/><path d="M275.69,427.38H236.31c-2.21,0-4-2.36-4-5.28V279c0-2.91,1.79-5.28,4-5.28h39.38c2.21,0,4,2.37,4,5.28V422.1C279.69,425,277.9,427.38,275.69,427.38Zm-35.38-10.56h31.38V284.3H240.31Z" transform="translate(-35.38 -84.62)" style="fill:#6c91a0"/><path d="M342.25,326.87H169.76c-3.52,0-6.37,1.79-6.37,4v39.39c0,2.21,2.86,4,6.37,4H342.24c3.52,0,6.37-1.79,6.37-4V330.87C348.62,328.66,345.76,326.87,342.25,326.87Zm3.13,39.39H176.13v-.05h-7a2.55,2.55,0,0,1-2.5-2.5,2.51,2.51,0,0,1,2.23-2.47V339.84h-.56a2.5,2.5,0,0,1,0-5h11.23l.27,0H335.87v0h8.62a2.55,2.55,0,0,1,2.5,2.5,2.38,2.38,0,0,1-1.09,2v21.28a2.67,2.67,0,0,1,.1.63,1.27,1.27,0,0,1,.18.06,2.57,2.57,0,0,1,1.7,2.35A2.53,2.53,0,0,1,345.38,366.26Z" transform="translate(-35.38 -84.62)" style="fill:#6c91a0"/></svg>