<svg id="Lag_1" data-name="Lag 1" xmlns="http://www.w3.org/2000/svg" viewBox="0 0 34.53 34.53"><path d="M.29,1.71A1,1,0,0,1,.29.29h0a1,1,0,0,1,1.42,0h0L18,16.56A1,1,0,0,1,18,18h0a1,1,0,0,1-1.41,0h0L.29,1.71Z" transform="translate(0 0)" style="fill:#6c91a0"/><path d="M1.71,34.24a1,1,0,0,1-1.41,0h0a1,1,0,0,1,0-1.41h0L16.56,16.55a1,1,0,0,1,1.41,0h0A1,1,0,0,1,18,18h0L1.71,34.24Z" transform="translate(0 0)" style="fill:#6c91a0"/><path d="M34.24,32.82a1,1,0,0,1,0,1.41h0a1,1,0,0,1-1.42,0h0L16.56,18a1,1,0,0,1,0-1.41h0a1,1,0,0,1,1.41,0h0L34.24,32.82Z" transform="translate(0 0)" style="fill:#6c91a0"/><path d="M32.82.29a1,1,0,0,1,1.42,0h0a1,1,0,0,1,0,1.42h0L18,18a1,1,0,0,1-1.41,0h0a1,1,0,0,1,0-1.41h0L32.82.29Z" transform="translate(0 0)" style="fill:#6c91a0"/></svg>