<svg id="Lag_1" data-name="Lag 1" xmlns="http://www.w3.org/2000/svg" viewBox="0 0 21 27"><path d="M23,27H8v1.5a.5.5,0,0,1-.5.5.5.5,0,0,1-.5-.5V27H6a1,1,0,0,1-1-1V3A1,1,0,0,1,6,2H25a1,1,0,0,1,1,1V26a1,1,0,0,1-1,1H24v1.5a.5.5,0,0,1-.5.5.5.5,0,0,1-.5-.5Zm-7-1h9V3H16Zm-1,0H6V3h9ZM14,13.5v2a.5.5,0,0,1-.5.5.5.5,0,0,1-.5-.5v-2a.5.5,0,0,1,.5-.5A.5.5,0,0,1,14,13.5Zm4,0v2a.5.5,0,0,1-.5.5.5.5,0,0,1-.5-.5v-2a.5.5,0,0,1,.5-.5A.5.5,0,0,1,18,13.5Z" transform="translate(-5 -2)" style="fill:#6c91a0;fill-rule:evenodd"/></svg>