<svg id="Lag_1" data-name="Lag 1" xmlns="http://www.w3.org/2000/svg" viewBox="0 0 1530.27 1285.8"><path d="M977.4,1412.9a137,137,0,0,1-46.4-8.1c-121.7-43.9-242-109-357.5-193.4a1712.7,1712.7,0,0,1-199.8-171.5A1722.84,1722.84,0,0,1,208.1,848.2C123.9,734.5,58.4,615.8,13.4,495.5A136.8,136.8,0,0,1,44.8,351.2L209.4,186.6c53.2-53.2,139.9-53.2,193.1,0l158,158c53.2,53.2,53.2,139.9,0,193.1l-49.6,49.6a1684.06,1684.06,0,0,0,147.2,168,1685.53,1685.53,0,0,0,177,154l48.5-48.5c53.3-53.2,139.9-53.2,193.1,0l158,158c53.2,53.2,53.2,139.9,0,193.1l-160.7,161a136.81,136.81,0,0,1-96.6,40ZM306.2,188.6a94.26,94.26,0,0,0-66.9,27.7L74.7,380.8a94.8,94.8,0,0,0-21.8,99.9C96.5,597.4,160.1,712.6,242,823.1a1678.5,1678.5,0,0,0,161.5,187,1674.11,1674.11,0,0,0,194.9,167.3c112.3,82.1,229,145.3,347,187.8a95,95,0,0,0,99-22.1l160.9-160.9a94.58,94.58,0,0,0,0-133.7l-158-158a94.58,94.58,0,0,0-133.7,0L864,940a40.33,40.33,0,0,1-52.6,3.7A1725.61,1725.61,0,0,1,628.7,784.9,1718,1718,0,0,1,476.8,611.4a40.5,40.5,0,0,1,3.6-52.9L531,508a94.58,94.58,0,0,0,0-133.7l-158-158A93.86,93.86,0,0,0,306.2,188.6Z" transform="translate(-4.8 -127.1)" style="fill:#6c91a0"/><path d="M1514,663H777.7a21,21,0,0,1-21-21V148.1a21,21,0,0,1,21-21H1514a21,21,0,0,1,21,21V642A21,21,0,0,1,1514,663ZM798.7,621H1493V169.1H798.7Z" transform="translate(-4.8 -127.1)" style="fill:#6c91a0"/><path d="M1146,508.3h-.3a20.65,20.65,0,0,1-14.2-5.6l-368-339.1A21,21,0,1,1,792,132.7l353.9,326.1,353.9-326.1a21,21,0,0,1,28.5,30.9l-368,339.1A21.45,21.45,0,0,1,1146,508.3Z" transform="translate(-4.8 -127.1)" style="fill:#6c91a0"/><path d="M1514,663a20.5,20.5,0,0,1-12.4-4.1L1203.5,439.7a21,21,0,1,1,24.9-33.9L1526.5,625a21,21,0,0,1-12.5,38Z" transform="translate(-4.8 -127.1)" style="fill:#6c91a0"/><path d="M777.7,663a21,21,0,0,1-12.4-38l298.1-219.2a21,21,0,0,1,24.9,33.9L790.2,658.9A21.7,21.7,0,0,1,777.7,663Z" transform="translate(-4.8 -127.1)" style="fill:#6c91a0"/></svg>