<svg id="Lag_1" data-name="Lag 1" xmlns="http://www.w3.org/2000/svg" viewBox="0 0 25.5 27.5"><path d="M28,7.75H4a.75.75,0,0,1,0-1.5H28a.75.75,0,0,1,0,1.5Z" transform="translate(-3.25 -2.25)" style="fill:#6c91a0"/><path d="M22,7.75H10a.75.75,0,0,1-.59-.29.77.77,0,0,1-.14-.64l.62-2.49a2.76,2.76,0,0,1,2.67-2.08h6.88a2.76,2.76,0,0,1,2.67,2.08l.62,2.49a.77.77,0,0,1-.14.64A.75.75,0,0,1,22,7.75ZM11,6.25H21L20.65,4.7a1.25,1.25,0,0,0-1.21-1H12.56a1.25,1.25,0,0,0-1.21,1Z" transform="translate(-3.25 -2.25)" style="fill:#6c91a0"/><path d="M20.15,29.75h-8.3c-2.89,0-5.3-1.82-5.61-4.23l-1-14.47a.75.75,0,0,1,1.5-.1l1,14.42c.21,1.62,2,2.88,4.12,2.88h8.3c2.14,0,3.91-1.26,4.12-2.93l1-14.37a.75.75,0,0,1,1.5.1l-1,14.42C25.45,27.93,23,29.75,20.15,29.75Z" transform="translate(-3.25 -2.25)" style="fill:#6c91a0"/></svg>