<svg id="Lag_1" data-name="Lag 1" xmlns="http://www.w3.org/2000/svg" viewBox="0 0 19 19"><path d="M12,3.5A8.5,8.5,0,1,0,20.5,12a8.24,8.24,0,0,0-1.58-5,.51.51,0,0,1,.1-.7.5.5,0,0,1,.7.1A9.17,9.17,0,0,1,21.5,12a9.4,9.4,0,1,1-5.28-8.55.5.5,0,1,1-.44.9A8.59,8.59,0,0,0,12,3.5Zm6.75,0a.51.51,0,0,1,.18.69l-6.5,11a.49.49,0,0,1-.37.25.48.48,0,0,1-.41-.15l-3.5-3.52a.5.5,0,0,1,0-.71.5.5,0,0,1,.7,0l3.05,3.07L18.07,3.72A.5.5,0,0,1,18.75,3.54Z" transform="translate(-2.5 -2.5)" style="fill:#6c91a0;fill-rule:evenodd"/></svg>