<svg id="Lag_1" data-name="Lag 1" xmlns="http://www.w3.org/2000/svg" viewBox="0 0 54.87 56.88"><path d="M18.92,26.59A46.28,46.28,0,0,1,18.28,13a1,1,0,1,0-2-.3A48.45,48.45,0,0,0,17,27.22c-.91,2-7,16.1-.33,26.85,4.85,7.77,15.17,11.71,30.66,11.71h0c2.14,0,4.41-.08,6.75-.23A1,1,0,0,0,55,64.33C54.93,64,47,31.37,18.92,26.59ZM47.35,63.78h0c-14.75,0-24.49-3.62-29-10.76-4.8-7.67-2.26-17.63-.58-22.38,2.64,9.72,9,21.09,23.93,27.83a1,1,0,0,0,.41.09,1,1,0,0,0,.41-1.91C27.6,49.9,21.66,38.27,19.38,28.71,42.6,33.18,51.09,58,52.74,63.63,50.88,63.73,49.07,63.78,47.35,63.78Z" transform="translate(-13.57 -8.89)" style="fill:#6c91a0"/><path d="M67.09,9a27.73,27.73,0,0,0-6.93,4.31C58.5,13.42,49.89,14.48,46.6,21c-2.66,5.25-1,12.5,4.81,21.53a1,1,0,0,0,.71.45h.13a1,1,0,0,0,.68-.26c.14-.13,14-13,8.73-28.16a24.72,24.72,0,0,1,6.14-3.71,1,1,0,0,0,.58-1.29A1,1,0,0,0,67.09,9ZM52.42,40.37c-4.89-7.88-6.25-14.1-4-18.48,1.93-3.82,6.27-5.46,9.21-6.15a23.49,23.49,0,0,0-6.17,18.6,1,1,0,0,0,1,.91h.09a1,1,0,0,0,.91-1.08A21.66,21.66,0,0,1,60,16C63.45,27.45,55.17,37.46,52.42,40.37Z" transform="translate(-13.57 -8.89)" style="fill:#6c91a0"/></svg>