<svg id="Lag_1" data-name="Lag 1" xmlns="http://www.w3.org/2000/svg" viewBox="0 0 74.49 80"><path d="M85.18,76.58a20,20,0,0,0,.95-6.11,20.23,20.23,0,0,0-6.72-15A5.4,5.4,0,0,1,78,49.66a16.18,16.18,0,0,0-4.24-16.84,5.8,5.8,0,0,1-1.86-3.44,22,22,0,0,0-43.74,0,5.75,5.75,0,0,1-1.86,3.44A16.2,16.2,0,0,0,22,49.66a5.4,5.4,0,0,1-1.44,5.77,20.23,20.23,0,0,0-6.72,15,20,20,0,0,0,1,6.11,20.52,20.52,0,0,0-1.42,4.16A51.5,51.5,0,0,0,12.76,89a1,1,0,0,0,.29.71,1,1,0,0,0,.71.29H86.24a1,1,0,0,0,.71-.29,1,1,0,0,0,.29-.71,51.5,51.5,0,0,0-.64-8.26A20.52,20.52,0,0,0,85.18,76.58ZM15.87,70.47a18.21,18.21,0,0,1,6.05-13.55,7.42,7.42,0,0,0,2-7.9,14.15,14.15,0,0,1,3.72-14.75,7.74,7.74,0,0,0,2.47-4.66,20,20,0,0,1,39.76,0,7.7,7.7,0,0,0,2.48,4.66A14.15,14.15,0,0,1,76.07,49a7.42,7.42,0,0,0,2,7.9,18.21,18.21,0,0,1,6,13.55,17.9,17.9,0,0,1-.38,3.66,12,12,0,0,0-7.42-4.9L61.72,65.92a1.68,1.68,0,0,1-1.31-1.64V59.54a22.65,22.65,0,0,0,9.84-19,.76.76,0,0,0,0-.21c0-.27-1.49-6.69-9.4-8.07-8.62-1.5-9.8-5.81-9.84-6a1,1,0,0,0-1-.78,1.06,1.06,0,0,0-1,.77c-.05.18-1.23,4.49-9.85,6-7.91,1.38-9.35,7.8-9.4,8.07a.76.76,0,0,0,0,.21A22.69,22.69,0,0,0,39.38,59.4v4.88a1.67,1.67,0,0,1-1.3,1.64l-14.4,3.31a12,12,0,0,0-7.43,4.9A17.9,17.9,0,0,1,15.87,70.47Zm8.24.71,14.41-3.31a3.65,3.65,0,0,0,2.86-3.59V60.59a18.63,18.63,0,0,0,17,.1v3.59a3.66,3.66,0,0,0,1.5,3c-2.79,3-14.09,12.7-44.53,13.84C16.11,77.89,18.21,72.46,24.11,71.18ZM50,60.7c-10,0-18.19-9-18.25-20,.2-.74,1.63-5.35,7.77-6.42,6.32-1.1,9.2-3.69,10.48-5.53,1.28,1.84,4.16,4.43,10.48,5.53,6.15,1.07,7.58,5.7,7.77,6.42C68.19,51.72,60,60.7,50,60.7ZM72.11,88a20.93,20.93,0,0,0,2.43-8,1,1,0,0,0-1-1,1,1,0,0,0-1,1c-.08,3.08-2,6.8-2.69,8.11H14.77c0-1.58.15-3.43.3-4.9C48.68,81.92,59.72,70.72,61.91,68l5.3,1.2c-.26,2.15-1.3,8-5.25,10.91a1,1,0,0,0,.61,1.8,1,1,0,0,0,.6-.2c4.47-3.36,5.68-9.49,6-12.06l6.73,1.52c5.95,1.29,8,6.82,8.75,10A46.66,46.66,0,0,1,85.23,88Z" transform="translate(-12.76 -10)" style="fill:#6c91a0"/></svg>