<svg id="Lag_1" data-name="Lag 1" xmlns="http://www.w3.org/2000/svg" viewBox="0 0 512 431.47"><path d="M11.17,362a71.68,71.68,0,0,1,29-25.89l19.38-10.19c66.26-34.87,177.19-93.25,180.53-94.9l5.8-2.65v-41c6.06-4.28,18.73-13.5,31.4-24.1,26.66-22.36,39.06-38.75,39-51.61a51.09,51.09,0,0,0-101.92-5.14c-.09,6.07-4.64,10.6-10.19,10.6a10.25,10.25,0,0,1-10.17-10C197.16,69,228.38,40.3,265.17,40.26a71.52,71.52,0,0,1,71.45,71.36c0,18.93-16.43,38.3-30.21,51.18a229.53,229.53,0,0,1-35.29,26.87l-5,3v35.21l6,2.75c3.27,1.62,118.49,62.73,195.11,103.44,27.54,11.53,44.77,37.4,44.77,66.28a71.48,71.48,0,0,1-71.39,71.4H71.39A71.39,71.39,0,0,1,11.17,362Zm60.22,89.42H440.61a51.09,51.09,0,0,0,19.86-98.15C401.34,322,262.53,248.52,260.27,247.64l-3.8-1.56-3.86,1.59c-1.23.5-35.59,18.46-202.7,106.28-3.47,2.22-16.61,11.11-21.61,19a51.08,51.08,0,0,0,43.09,78.51Z" transform="translate(0 -40.26)" style="fill:#699"/><path d="M255.7,279.1a3.25,3.25,0,0,0-2.9,3.3v65.11H187.39a3.26,3.26,0,0,0,.3,6.51H252.8v65.1a3.26,3.26,0,0,0,6.51.09V354h65.1a3.26,3.26,0,1,0,.1-6.51h-65.2V282.4a3.25,3.25,0,0,0-3.18-3.32A2,2,0,0,0,255.7,279.1Z" transform="translate(0 -40.26)" style="stroke:#6c91a0;stroke-miterlimit:10;stroke-width:12px"/></svg>