<svg id="Lag_1" data-name="Lag 1" xmlns="http://www.w3.org/2000/svg" viewBox="0 0 389.37 307.57"><path id="Path_4-2" data-name="Path 4-2" d="M628.23,356.74s52.84-63.13,105.34-63.13S844,355.28,813.12,423,628.23,588.08,628.23,588.08,474.47,490.7,450.26,423s30.85-129.36,80.84-129.36S628.23,356.74,628.23,356.74Z" transform="translate(-438.37 -287.61)" style="fill:none;stroke:#6c91a0;stroke-miterlimit:10;stroke-width:12px"/><path id="Path_4-2_-_Outline" data-name="Path 4-2 - Outline" d="M733.57,293.11a74.31,74.31,0,0,1,21,3.12,89.52,89.52,0,0,1,20.24,8.83,99.46,99.46,0,0,1,33,31.7,92,92,0,0,1,9.34,18.92,85.87,85.87,0,0,1,3.8,43.77,96.44,96.44,0,0,1-7.4,23.73c-3.69,8.11-9.36,17.07-16.86,26.63a307.27,307.27,0,0,1-25.14,27.87c-16.63,16.52-37.54,34.56-62.15,53.63-21.9,17-42.73,31.6-56.35,40.9-14.76,10.08-24.47,16.23-24.57,16.29l-.26.17-.27-.17c-.1-.06-9.79-6.21-24.42-16.28-13.5-9.3-34.1-24-55.53-40.9-24.09-19.07-44.31-37.11-60.1-53.63a260.29,260.29,0,0,1-23.47-27.88c-6.82-9.58-11.75-18.54-14.65-26.66a100.55,100.55,0,0,1-5.55-25,95.72,95.72,0,0,1,.87-23.79,97.89,97.89,0,0,1,6.3-21.93A102.61,102.61,0,0,1,462.16,333a100.94,100.94,0,0,1,31.37-29c12.22-7.12,25.21-10.88,37.58-10.88a68.54,68.54,0,0,1,18.66,2.74A96.22,96.22,0,0,1,567.6,303a159.05,159.05,0,0,1,31.15,21.77,240.78,240.78,0,0,1,21.71,21.74c4.1,4.68,6.84,8.16,7.79,9.4,1.06-1.22,4.12-4.71,8.7-9.41a266.76,266.76,0,0,1,24-21.75A180.34,180.34,0,0,1,694.75,303a110.44,110.44,0,0,1,19.1-7.18A76.89,76.89,0,0,1,733.57,293.11ZM628.23,587.49c1.66-1.06,10.89-7,24.28-16.1,13.61-9.29,34.43-23.93,56.3-40.87,38.61-29.9,88-72.87,103.85-107.75,13.18-28.93,11.16-59.29-5.68-85.46s-45.7-43.2-73.41-43.2c-27,0-54.07,17.1-72,31.46a263.2,263.2,0,0,0-23.86,21.66c-5.7,5.83-9,9.8-9.06,9.83l-.4.49-.38-.51s-3-4-8.13-9.85a238.9,238.9,0,0,0-21.63-21.65c-16.38-14.34-41.3-31.43-67-31.43-24.87,0-51,15.13-68.12,39.48a96.6,96.6,0,0,0-12.25,89.22c5.5,15.38,18.25,33.61,37.91,54.19,15.75,16.48,35.93,34.5,60,53.53,21.41,16.94,42,31.57,55.47,40.86C617.38,580.53,626.58,586.43,628.23,587.49Z" transform="translate(-438.37 -287.61)" style="fill:#6c91a0"/></svg>