<svg id="Lag_1" data-name="Lag 1" xmlns="http://www.w3.org/2000/svg" viewBox="0 0 66 79.89"><path d="M56.39,74.57h-17c-2.81,0-5-1.66-5-3.78s2.19-3.77,5-3.77h17c2.8,0,5,1.66,5,3.77S59.19,74.57,56.39,74.57ZM39.39,69c-1.77,0-3,.94-3,1.77s1.23,1.78,3,1.78h17c1.77,0,3-.94,3-1.78S58.16,69,56.39,69Z" transform="translate(-14.89 -8.78)" style="fill:#6c91a0"/><path d="M56.39,83.12h-17c-2.81,0-5-1.66-5-3.77s2.19-3.78,5-3.78h17c2.8,0,5,1.66,5,3.78S59.19,83.12,56.39,83.12Zm-17-5.55c-1.77,0-3,.94-3,1.77s1.23,1.78,3,1.78h17c1.77,0,3-.94,3-1.78s-1.23-1.77-3-1.77Z" transform="translate(-14.89 -8.78)" style="fill:#6c91a0"/><path d="M49.89,88.67h-4c-2.64,0-5.25-1.51-5.94-3.44l-1-2.78a1,1,0,0,1,1.88-.67l1,2.77c.36,1,2.12,2.12,4.06,2.12h4c1.94,0,3.7-1.12,4.06-2.12l1-2.77a1,1,0,0,1,1.28-.6,1,1,0,0,1,.6,1.27l-1,2.78C55.13,87.16,52.53,88.67,49.89,88.67Z" transform="translate(-14.89 -8.78)" style="fill:#6c91a0"/><path d="M56.39,66h-17a4.75,4.75,0,0,1-5-4.45,11.05,11.05,0,0,0-2.33-5.87c-.24-.28-5.77-7-5.77-13.92a21.6,21.6,0,1,1,43.2,0c0,6.95-5.53,13.64-5.77,13.92a11.05,11.05,0,0,0-2.33,5.87A4.76,4.76,0,0,1,56.39,66Zm-8.5-43.84a19.62,19.62,0,0,0-19.6,19.6c0,6.23,5.24,12.58,5.3,12.64a12.93,12.93,0,0,1,2.8,7.15,2.8,2.8,0,0,0,3,2.45h17a2.81,2.81,0,0,0,3-2.45,12.93,12.93,0,0,1,2.8-7.15c.05-.06,5.3-6.42,5.3-12.64A19.62,19.62,0,0,0,47.89,22.18Z" transform="translate(-14.89 -8.78)" style="fill:#6c91a0"/><path d="M56.39,66h-17a4.75,4.75,0,0,1-5-4.45,11.05,11.05,0,0,0-2.33-5.87c-.24-.28-5.77-7-5.77-13.92a21.6,21.6,0,1,1,43.2,0c0,6.95-5.53,13.64-5.77,13.92a11.05,11.05,0,0,0-2.33,5.87A4.76,4.76,0,0,1,56.39,66Zm-8.5-43.84a19.62,19.62,0,0,0-19.6,19.6c0,6.23,5.24,12.58,5.3,12.64a12.93,12.93,0,0,1,2.8,7.15,2.8,2.8,0,0,0,3,2.45h17a2.81,2.81,0,0,0,3-2.45,12.93,12.93,0,0,1,2.8-7.15c.05-.06,5.3-6.42,5.3-12.64A19.62,19.62,0,0,0,47.89,22.18Z" transform="translate(-14.89 -8.78)" style="fill:#6c91a0"/><path d="M23.29,42.78h-7.4a1,1,0,0,1,0-2h7.4a1,1,0,0,1,0,2Z" transform="translate(-14.89 -8.78)" style="fill:#6c91a0"/><path d="M79.89,42.78h-7.4a1,1,0,0,1,0-2h7.4a1,1,0,0,1,0,2Z" transform="translate(-14.89 -8.78)" style="fill:#6c91a0"/><path d="M20.18,58.78a1,1,0,0,1-.5-1.87l6.4-3.7a1,1,0,0,1,1,1.74l-6.4,3.69A.93.93,0,0,1,20.18,58.78Z" transform="translate(-14.89 -8.78)" style="fill:#6c91a0"/><path d="M69.2,30.48a1,1,0,0,1-.87-.5,1,1,0,0,1,.36-1.37l6.41-3.7a1,1,0,0,1,1,1.74l-6.41,3.69A.87.87,0,0,1,69.2,30.48Z" transform="translate(-14.89 -8.78)" style="fill:#6c91a0"/><path d="M60.19,21.47a1,1,0,0,1-.87-1.5l3.7-6.4a1,1,0,1,1,1.73,1L61.06,21A1,1,0,0,1,60.19,21.47Z" transform="translate(-14.89 -8.78)" style="fill:#6c91a0"/><path d="M47.89,18.18a1,1,0,0,1-1-1V9.78a1,1,0,0,1,2,0v7.4A1,1,0,0,1,47.89,18.18Z" transform="translate(-14.89 -8.78)" style="fill:#6c91a0"/><path d="M35.59,21.47a1,1,0,0,1-.87-.5L31,14.57a1,1,0,0,1,.37-1.37,1,1,0,0,1,1.36.37l3.7,6.4a1,1,0,0,1-.36,1.37A1,1,0,0,1,35.59,21.47Z" transform="translate(-14.89 -8.78)" style="fill:#6c91a0"/><path d="M75.6,58.78a.93.93,0,0,1-.5-.14l-6.41-3.7a1,1,0,0,1,1-1.73l6.4,3.7a1,1,0,0,1-.5,1.87Z" transform="translate(-14.89 -8.78)" style="fill:#6c91a0"/><path d="M26.58,30.47a1,1,0,0,1-.5-.13l-6.4-3.69a1,1,0,0,1,1-1.74l6.41,3.7A1,1,0,0,1,27.45,30,1,1,0,0,1,26.58,30.47Z" transform="translate(-14.89 -8.78)" style="fill:#6c91a0"/></svg>