<svg id="Lag_1" data-name="Lag 1" xmlns="http://www.w3.org/2000/svg" viewBox="0 0 90.05 89.95"><path d="M92.6,79l-.1-.1L72.3,61.3A36.38,36.38,0,1,0,41.8,77.9,36.94,36.94,0,0,0,61.7,72L79.3,92.2l.1.1A9.38,9.38,0,0,0,86,95a9.07,9.07,0,0,0,6.6-2.8h0a9.24,9.24,0,0,0,2.8-6.6A9.07,9.07,0,0,0,92.6,79Zm-73-15.4a31.4,31.4,0,1,1,44.4,0A31.32,31.32,0,0,1,19.6,63.6ZM89.1,88.7h0A4.77,4.77,0,0,1,86,90a4.65,4.65,0,0,1-3.1-1.2L65.7,69l3.7-3.7L89.2,82.5a4.3,4.3,0,0,1,1.2,3.1A4.39,4.39,0,0,1,89.1,88.7Z" transform="translate(-5.35 -5.05)" style="fill:#6c91a0"/></svg>