<svg id="Lag_1" data-name="Lag 1" xmlns="http://www.w3.org/2000/svg" viewBox="0 0 40 40"><path d="M21,21c3,0,6-2.17,6-7a6,6,0,0,0-12,0C15,18.83,18,21,21,21Zm0-11a4,4,0,0,1,4,4c0,3.13-1.5,5-4,5s-4-1.87-4-5A4,4,0,0,1,21,10Z" transform="translate(-1 -1)" style="fill:#6c91a0"/><path d="M21,23c-6.17,0-11,2.66-11,6.06C10,32.25,13.91,34,21,34s11-1.75,11-4.94C32,25.66,27.17,23,21,23Zm0,9c-5.47,0-9-1.15-9-2.94S15.7,25,21,25s9,2.14,9,4.06S26.47,32,21,32Z" transform="translate(-1 -1)" style="fill:#6c91a0"/><path d="M21,1A20,20,0,1,0,41,21,20,20,0,0,0,21,1Zm0,38A18,18,0,1,1,39,21,18,18,0,0,1,21,39Z" transform="translate(-1 -1)" style="fill:#6c91a0"/></svg>