<svg id="Lag_1" data-name="Lag 1" xmlns="http://www.w3.org/2000/svg" viewBox="0 0 88.84 68.07"><path d="M6.17,21.53Q27.31,12.14,46.09,49.7,62.26,84.35,89.78,73.56l-7.29-4.21,1.17-2,10.17,5.87-1.18,2L88,83.35l-2-1.17L89.51,76Q59.85,86.53,43.74,49.7,25,14.48,6.17,23.87h0ZM41,55.11q-17.43,29.73-34.87,21v2.34q19,8.46,36.17-21.18ZM92.65,24.78,88,16.65l-2,1.17L89.51,24q-26.43-9.4-42.1,18.84l1.33,2.22q15.7-28.54,41-18.64l-7.3,4.21,1.18,2,10.17-5.87Z" transform="translate(-5.67 -15.97)" style="fill:#6c91a0;stroke:#6c91a0;stroke-miterlimit:10"/></svg>