<svg id="Lag_1" data-name="Lag 1" xmlns="http://www.w3.org/2000/svg" viewBox="0 0 63.95 80"><path d="M66.6,16.88a8.29,8.29,0,0,0-9-1.83,8.29,8.29,0,0,0-15.26,0,8.3,8.3,0,0,0-10.8,10.8,8.3,8.3,0,0,0,0,15.27,8.3,8.3,0,0,0,10.8,10.79,8.29,8.29,0,0,0,6.63,5V80.08A46.19,46.19,0,0,0,39,69.91,9.62,9.62,0,0,0,36.39,57.4c-5.62-4.32-17-2.55-17.52-2.48A1,1,0,0,0,18,56c.06.49,1.5,12.14,6.9,16.29a9.83,9.83,0,0,0,6,2.06,10.28,10.28,0,0,0,1.1-.06,9.27,9.27,0,0,0,5.7-2.81A43.71,43.71,0,0,1,49,83.73V89a1,1,0,0,0,2,0V83.73A43.71,43.71,0,0,1,62.26,71.51,9.27,9.27,0,0,0,68,74.32a10.28,10.28,0,0,0,1.1.06,9.83,9.83,0,0,0,6-2.06c5.4-4.15,6.84-15.8,6.9-16.29a1,1,0,0,0-.84-1.11c-.48-.07-11.9-1.84-17.52,2.48a9.62,9.62,0,0,0-2.56,12.51A46.19,46.19,0,0,0,51,80.08V56.89a8.29,8.29,0,0,0,6.63-5,8.3,8.3,0,0,0,10.8-10.79,8.3,8.3,0,0,0,0-15.27A8.33,8.33,0,0,0,66.6,16.88ZM31.81,72.34a7.84,7.84,0,0,1-5.66-1.61c-3.9-3-5.53-11.14-6-14,2.81-.31,10.94-.91,15,2.21a7.58,7.58,0,0,1,1.6,10.58A7.24,7.24,0,0,1,31.81,72.34ZM64.83,59c4.06-3.12,12.2-2.53,15-2.21-.46,2.83-2.09,11-6,14a7.86,7.86,0,0,1-5.66,1.61,7.24,7.24,0,0,1-5-2.78A7.58,7.58,0,0,1,64.83,59Zm6.65-25.5a6.31,6.31,0,0,1-4.7,6.09,1,1,0,0,0-.67.59,1,1,0,0,0,.06.88,6.3,6.3,0,0,1-8.61,8.62,1,1,0,0,0-.89-.06,1,1,0,0,0-.58.67,6.3,6.3,0,0,1-12.18,0,1,1,0,0,0-.58-.67,1.09,1.09,0,0,0-.39-.08,1,1,0,0,0-.5.14A6.3,6.3,0,0,1,33.83,41a1,1,0,0,0,.06-.88,1,1,0,0,0-.67-.59,6.3,6.3,0,0,1,0-12.18,1,1,0,0,0,.67-.58,1,1,0,0,0-.06-.89,6.29,6.29,0,0,1,8.61-8.61,1.07,1.07,0,0,0,.89.06,1,1,0,0,0,.58-.67,6.3,6.3,0,0,1,12.18,0,1,1,0,0,0,.58.67,1.07,1.07,0,0,0,.89-.06,6.29,6.29,0,0,1,8.61,8.61,1,1,0,0,0-.06.89,1,1,0,0,0,.67.58A6.31,6.31,0,0,1,71.48,33.48Z" transform="translate(-18.02 -10)" style="fill:#6c91a0"/><path d="M50,42.82a1,1,0,0,0-1,1v3.44a1,1,0,0,0,2,0V43.82A1,1,0,0,0,50,42.82Z" transform="translate(-18.02 -10)" style="fill:#6c91a0"/><path d="M58,40.08A1,1,0,0,0,56.6,41.5L59,43.93a1,1,0,0,0,1.42,0,1,1,0,0,0,0-1.42Z" transform="translate(-18.02 -10)" style="fill:#6c91a0"/><path d="M63.77,32.48H60.34a1,1,0,0,0,0,2h3.43a1,1,0,0,0,0-2Z" transform="translate(-18.02 -10)" style="fill:#6c91a0"/><path d="M57.31,27.17a1,1,0,0,0,.71-.29l2.43-2.43A1,1,0,0,0,59,23L56.6,25.47a1,1,0,0,0,0,1.41A1,1,0,0,0,57.31,27.17Z" transform="translate(-18.02 -10)" style="fill:#6c91a0"/><path d="M50,18.71a1,1,0,0,0-1,1v3.44a1,1,0,1,0,2,0V19.71A1,1,0,0,0,50,18.71Z" transform="translate(-18.02 -10)" style="fill:#6c91a0"/><path d="M41,23a1,1,0,0,0-1.42,1.42L42,26.88a1,1,0,0,0,.71.29,1,1,0,0,0,.71-.29,1,1,0,0,0,0-1.41Z" transform="translate(-18.02 -10)" style="fill:#6c91a0"/><path d="M40.66,33.48a1,1,0,0,0-1-1H36.23a1,1,0,0,0,0,2h3.43A1,1,0,0,0,40.66,33.48Z" transform="translate(-18.02 -10)" style="fill:#6c91a0"/><path d="M42,40.08l-2.43,2.43a1,1,0,0,0,0,1.42,1,1,0,0,0,1.42,0L43.4,41.5A1,1,0,0,0,42,40.08Z" transform="translate(-18.02 -10)" style="fill:#6c91a0"/></svg>