<svg id="Lag_1" data-name="Lag 1" xmlns="http://www.w3.org/2000/svg" viewBox="0 0 88.06 88.04"><path d="M50,73.33A23.33,23.33,0,1,1,73.33,50,23.34,23.34,0,0,1,50,73.33Zm0-44.16A20.83,20.83,0,1,0,70.83,50,20.84,20.84,0,0,0,50,29.17Z" transform="translate(-5.97 -5.96)" style="fill:#6c91a0"/><path d="M50,18.63a1.25,1.25,0,0,1-1.25-1.23V7.21a1.25,1.25,0,0,1,2.5,0V17.38A1.25,1.25,0,0,1,50,18.63Z" transform="translate(-5.97 -5.96)" style="fill:#6c91a0"/><path d="M50,94a1.25,1.25,0,0,1-1.25-1.25V82.62a1.25,1.25,0,0,1,2.5,0V92.79A1.25,1.25,0,0,1,50,94Z" transform="translate(-5.97 -5.96)" style="fill:#6c91a0"/><path d="M33.69,23a1.23,1.23,0,0,1-1.08-.62l-5.09-8.81a1.25,1.25,0,1,1,2.17-1.25l5.09,8.81A1.24,1.24,0,0,1,33.69,23Z" transform="translate(-5.97 -5.96)" style="fill:#6c91a0"/><path d="M71.39,88.3a1.23,1.23,0,0,1-1.08-.62l-5.09-8.81a1.25,1.25,0,1,1,2.17-1.25l5.09,8.81A1.26,1.26,0,0,1,72,88.14,1.32,1.32,0,0,1,71.39,88.3Z" transform="translate(-5.97 -5.96)" style="fill:#6c91a0"/><path d="M21.75,34.94a1.23,1.23,0,0,1-.62-.17l-8.81-5.08a1.25,1.25,0,0,1,1.25-2.17l8.81,5.09a1.25,1.25,0,0,1-.63,2.33Z" transform="translate(-5.97 -5.96)" style="fill:#6c91a0"/><path d="M87.05,72.64a1.22,1.22,0,0,1-.62-.16l-8.81-5.09a1.25,1.25,0,1,1,1.12-2.23l.13.07,8.81,5.08a1.25,1.25,0,0,1-.63,2.33Z" transform="translate(-5.97 -5.96)" style="fill:#6c91a0"/><path d="M17.39,51.25H7.22a1.25,1.25,0,1,1,0-2.5H17.39a1.25,1.25,0,0,1,0,2.5Z" transform="translate(-5.97 -5.96)" style="fill:#6c91a0"/><path d="M92.78,51.25H82.61a1.25,1.25,0,0,1,0-2.5H92.78a1.25,1.25,0,0,1,0,2.5Z" transform="translate(-5.97 -5.96)" style="fill:#6c91a0"/><path d="M13,72.64a1.25,1.25,0,0,1-.63-2.33l8.81-5.08a1.25,1.25,0,0,1,1.38,2.09l-.13.07-8.81,5.09A1.22,1.22,0,0,1,13,72.64Z" transform="translate(-5.97 -5.96)" style="fill:#6c91a0"/><path d="M78.25,34.94a1.25,1.25,0,0,1-.63-2.33l8.81-5.09a1.25,1.25,0,0,1,1.25,2.17l-8.81,5.08A1.23,1.23,0,0,1,78.25,34.94Z" transform="translate(-5.97 -5.96)" style="fill:#6c91a0"/><path d="M28.61,88.3a1.26,1.26,0,0,1-.63-.16,1.28,1.28,0,0,1-.46-1.71l5.09-8.81a1.25,1.25,0,0,1,2.17,1.25l-5.09,8.81A1.23,1.23,0,0,1,28.61,88.3Z" transform="translate(-5.97 -5.96)" style="fill:#6c91a0"/><path d="M66.31,23a1.26,1.26,0,0,1-.63-.16,1.28,1.28,0,0,1-.46-1.71l5.09-8.81a1.25,1.25,0,0,1,2.17,1.25l-5.09,8.81A1.23,1.23,0,0,1,66.31,23Z" transform="translate(-5.97 -5.96)" style="fill:#6c91a0"/></svg>