<svg id="Lag_1" data-name="Lag 1" xmlns="http://www.w3.org/2000/svg" viewBox="0 0 155.68 110.1"><defs><style>.cls-1{fill:none;stroke:#5192a0;stroke-miterlimit:10;stroke-width:7px;}</style></defs><path class="cls-1" d="M348.09,477.2A17.75,17.75,0,0,1,379,463.46a17.66,17.66,0,0,1,2.9,18.81c-.45,1-3.38,7.08-10.13,8.92a25.38,25.38,0,0,1-7.34.71.84.84,0,0,0-.89.88c.14,5.45.23,10.31.38,15.78a.88.88,0,0,0,.5.77c21.4,9.41,44.31,19.23,65.68,28.64l.07,0a12.89,12.89,0,0,1,7.69,6.74c1.68,3.8,1.56,9-1.69,12.54a10,10,0,0,1-6.76,3.38" transform="translate(-286.71 -454.06)"/><path class="cls-1" d="M363.64,509.11,299,537.57a13,13,0,0,0-7.72,6.76c-1.69,3.79-1.57,9,1.69,12.54a11.23,11.23,0,0,0,6.75,3.38c44.3.08,86,.33,130.29.41" transform="translate(-286.71 -454.06)"/><line class="cls-1" x1="77.63" y1="67.17" x2="77.63" y2="97.46"/><line class="cls-1" x1="61.28" y1="83.09" x2="93.69" y2="83.09"/></svg>