<svg id="Lag_1" data-name="Lag 1" xmlns="http://www.w3.org/2000/svg" viewBox="0 0 369.87 369.87"><defs><style>.cls-1,.cls-2,.cls-3{fill:none;stroke:#e9decd;stroke-miterlimit:10;}.cls-1{stroke-width:24px;}.cls-2{stroke-width:25px;}.cls-3{stroke-width:20px;}</style></defs><path class="cls-1" d="M417.37,116.26,417,163.34,386.36,163a9.13,9.13,0,0,0-4.91,3,9.59,9.59,0,0,0-1.87,5.91c-.42,13.21-.5,28.88-.5,28.88l36.79.43-.2,42.27-36.1.21-.51,117-50.58.52V244.3l-25.08-.22.05-44.57H326.4c0-5.49.16-13.6.56-23.45.45-11.15.67-16.73,1.29-19.92,1.24-6.36,4.42-22.65,18.31-32.37,7.49-5.24,17.17-6.59,19.59-7,3.88-.65,8.46-1,10.75-1.15,3.43-.25,7.29-.43,12.63-.44C400.41,115.14,410.89,115.78,417.37,116.26Z" transform="translate(-175.45 -48.88)"/><circle class="cls-2" cx="184.94" cy="184.94" r="172.44"/><path class="cls-3" d="M457.05,217.59" transform="translate(-175.45 -48.88)"/></svg>